<svg xmlns="http://www.w3.org/2000/svg" width="201.604" height="48.197" viewBox="0 0 201.604 48.197"><g transform="translate(-506.4 164)"><g transform="translate(506.4 -164)"><path d="M160.6,265.453l22.847,12.693V243.558L157.6,237Zm1.657-1.3-2.5-23.834,21.542,5.5.317,28.946Z" transform="translate(-157.6 -229.949)" fill="#fff" fill-rule="evenodd"/><path d="M174.7,272.918l-.881-15.231,13.433,3.632.564,22.247-16.042-7.616L169.9,256.7l2.08.529,1.551,17.064,12.2,5.43-.388-16.818-9.308-2.75.494,11.318,5.571,2.256-.529-7.3-2.045-.74v2.891l-2.045,1.9-.247-7.651,6.346,2.045.74,12.164Z" transform="translate(-165.563 -242.703)" fill="#fff" fill-rule="evenodd"/><path d="M240,240.35v34.587l18.651-14.173,2.433-28.664ZM257.311,259.6l-15.619,11.882.247-28.946,17.382-6.91Z" transform="translate(-210.948 -226.776)" fill="#fff" fill-rule="evenodd"/><path d="M259.377,269.2l.705-15.266-10.824,4.513-.458,22.247,12.939-8.638,1.516-19.356-1.657.67-1.269,17.135-9.837,6.24.317-16.853,7.51-3.349L257.9,267.9l-4.478,2.644.423-7.333,1.657-.917v2.926l1.657,1.763.176-7.686-5.112,2.468-.564,12.2Z" transform="translate(-216.645 -240.113)" fill="#fff" fill-rule="evenodd"/><path d="M183.565,217,161.6,221.654l26.055,6.452,21.331-7.333Zm3.984,10.048-21.93-5.43,18.369-3.878,20.943,3.067Z" transform="translate(-160.19 -217)" fill="#fff" fill-rule="evenodd"/><path d="M200.12,222.346l-11.141,2.715,13.363,3.244,14.561-4.583L199.838,220.9,185.1,224.108l2.08.494,12.939-2.856,12.446,2.115-10.648,3.561-9.449-2.186,8.18-2.045,4.865.74-4.231,1.692-2.186-.458,2.01-.564-.353-.952-5.465,1.41,6.523,1.481,7.757-2.574Z" transform="translate(-175.404 -219.525)" fill="#fff" fill-rule="evenodd"/></g><path d="M338.852,251.922c0,2.433-1.234,3.667-3.667,3.667H324.467v7.333H320.8V244.589h14.35a3.621,3.621,0,0,1,2.609,1.058,3.541,3.541,0,0,1,1.058,2.574v3.7Zm-3.667,0v-3.7H324.467v3.7Zm24.61,11H345.128a3.5,3.5,0,0,1-3.632-3.632v-3.667a3.5,3.5,0,0,1,3.632-3.632h11v-3.7H341.5v-3.667h14.632a3.7,3.7,0,0,1,2.644,1.022,3.455,3.455,0,0,1,1.058,2.609v14.667Zm-3.667-3.632v-3.667h-11v3.667Zm25.138,3.631h-3.7V248.255H367.516v14.667h-3.631V244.589H377.6c2.468,0,3.7,1.234,3.7,3.667v14.667Zm21.472,0H388.423a3.5,3.5,0,0,1-3.667-3.667V248.15a3.365,3.365,0,0,1,1.093-2.539,3.654,3.654,0,0,1,2.574-1.022h10.683V239.3h3.667v23.622Zm-3.667-3.631V248.255H388.388v11.036Zm25.949-5.5a8.973,8.973,0,0,1-2.785,6.664,9.449,9.449,0,1,1-13.363-13.363,9.244,9.244,0,0,1,6.7-2.785,9.51,9.51,0,0,1,9.449,9.484Zm-3.667,0a5.728,5.728,0,0,0-1.692-4.125,5.835,5.835,0,0,0-9.942,4.125,5.49,5.49,0,0,0,1.728,4.09,5.645,5.645,0,0,0,4.125,1.728,5.49,5.49,0,0,0,4.09-1.728A5.706,5.706,0,0,0,421.354,253.791Zm23.411-1.869h-3.7v-3.7h-9.414v14.667h-3.667V244.553h13.081c2.468,0,3.7,1.234,3.7,3.667Zm20.061,11H450.159a3.5,3.5,0,0,1-3.632-3.632v-3.667a3.561,3.561,0,0,1,1.022-2.609,3.619,3.619,0,0,1,2.609-1.022h11v-3.7H446.528v-3.667h14.632a3.7,3.7,0,0,1,2.644,1.022,3.455,3.455,0,0,1,1.058,2.609v14.667Zm-3.667-3.632v-3.667h-11v3.667Z" transform="translate(243.14 -395.438)" fill="#fff" fill-rule="evenodd"/><g transform="translate(563.834 -129.592)"><path d="M323.18,320.8h-1.728a.866.866,0,0,1-.952-.987V314.7h.846v4.936c0,.247.106.353.317.353h1.269c.212,0,.317-.106.317-.353V314.7h.846v5.112a.84.84,0,0,1-.917.987Z" transform="translate(-320.5 -314.661)" fill="#fff"/><path d="M340.876,316.316v4.548H340.1V314.8h.881l1.939,4.548V314.8h.776v6.064h-.881Z" transform="translate(-333.19 -314.726)" fill="#fff"/><path d="M360.446,320.124H362.6a.6.6,0,0,0,.247-.035v.776H359.6V314.8h.846Z" transform="translate(-345.814 -314.726)" fill="#fff"/><path d="M379.773,314.7v.776a.688.688,0,0,0-.247-.035h-2.08v1.8h1.622a.6.6,0,0,0,.247-.035v.74c-.071,0-.176-.035-.247-.035h-1.622v2.115h2.221a.6.6,0,0,0,.247-.035v.776H376.6V314.7Z" transform="translate(-356.821 -314.661)" fill="#fff"/><path d="M393.669,319.354l-.353,1.41H392.4l1.622-6.064h1.058l1.587,6.064h-.952l-.353-1.41Zm1.622-.6-.74-3.032-.776,3.032Z" transform="translate(-367.05 -314.661)" fill="#fff"/><path d="M414.185,320.729h-2.4v-.846a.634.634,0,0,0,.353.071h1.8c.212,0,.317-.106.317-.353v-.529a.529.529,0,0,0-.141-.388l-1.8-1.481a1.137,1.137,0,0,1-.529-1.058v-.564a.882.882,0,0,1,.952-.987h2.221v.846a.7.7,0,0,0-.388-.07h-1.657a.307.307,0,0,0-.317.353v.388a.449.449,0,0,0,.176.388l1.8,1.446A1.171,1.171,0,0,1,415.1,319v.67C415.1,320.305,414.855,320.729,414.185,320.729Z" transform="translate(-379.598 -314.59)" fill="#fff"/><path d="M430.946,317.944v2.821H430.1V314.7h.846v2.539h1.9V314.7h.846v6.1h-.811v-2.821h-1.939Z" transform="translate(-391.458 -314.661)" fill="#fff"/><path d="M462.75,320.864H461.9V318.29L460,314.8h1.022l1.3,2.609L463.6,314.8h.987l-1.833,3.49Z" transform="translate(-410.816 -314.726)" fill="#fff"/><path d="M480.488,315.681a.881.881,0,0,1,.952-.987h1.728a.866.866,0,0,1,.952.987v4.125a.881.881,0,0,1-.952.987H481.44a.866.866,0,0,1-.952-.987Zm2.75.141c0-.247-.106-.353-.317-.353h-1.269c-.211,0-.317.106-.317.353v3.808c0,.247.106.353.317.353h1.269c.212,0,.317-.106.317-.353Z" transform="translate(-424.076 -314.655)" fill="#fff"/><path d="M502.58,320.8h-1.728a.866.866,0,0,1-.952-.987V314.7h.846v4.936c0,.247.106.353.317.353h1.269c.212,0,.317-.106.317-.353V314.7h.846v5.112a.84.84,0,0,1-.917.987Z" transform="translate(-436.648 -314.661)" fill="#fff"/><path d="M523.314,320.864H522.4l-.987-2.785h-1.164v2.785H519.4V314.8h2.68a.866.866,0,0,1,.952.987v1.269c0,.74-.423.952-.74.952h-.07Zm-3.067-5.324V317.3h1.586c.212,0,.317-.106.317-.353v-1.058c0-.247-.106-.353-.317-.353Z" transform="translate(-449.273 -314.726)" fill="#fff"/><path d="M552.521,320.8h-.846v-5.324h-1.128a.6.6,0,0,0-.247.035V314.7h3.6v.811a.689.689,0,0,0-.247-.035h-1.093V320.8Z" transform="translate(-469.279 -314.661)" fill="#fff"/><path d="M572.514,320.864H571.6l-.987-2.785h-1.164v2.785H568.6V314.8h2.68a.866.866,0,0,1,.952.987v1.269c0,.74-.423.952-.74.952h-.07Zm-3.067-5.324V317.3h1.587c.212,0,.317-.106.317-.353v-1.058c0-.247-.106-.353-.317-.353Z" transform="translate(-481.127 -314.726)" fill="#fff"/><path d="M590.979,320.8h-1.728a.866.866,0,0,1-.952-.987V314.7h.846v4.936c0,.247.106.353.317.353h1.269c.211,0,.317-.106.317-.353V314.7h.846v5.112C591.9,320.376,591.649,320.8,590.979,320.8Z" transform="translate(-493.881 -314.661)" fill="#fff"/><path d="M610.973,314.7v.776a.688.688,0,0,0-.247-.035h-2.08v1.8h1.622a.6.6,0,0,0,.247-.035v.74c-.07,0-.176-.035-.247-.035h-1.622v2.115h2.221a.6.6,0,0,0,.247-.035v.776H607.8V314.7Z" transform="translate(-506.506 -314.661)" fill="#fff"/><path d="M640.28,318.19h-1.833v2.574H637.6V314.7h2.68a.866.866,0,0,1,.952.987v1.551C641.2,317.8,640.949,318.19,640.28,318.19Zm.07-2.362c0-.247-.106-.353-.317-.353h-1.587v1.974h1.587c.212,0,.317-.141.317-.353Z" transform="translate(-525.799 -314.661)" fill="#fff"/><path d="M656.288,315.681a.881.881,0,0,1,.952-.987h1.728a.866.866,0,0,1,.952.987v4.125a.881.881,0,0,1-.952.987H657.24a.866.866,0,0,1-.952-.987Zm2.785.141c0-.247-.106-.353-.317-.353h-1.269c-.211,0-.317.106-.317.353v3.808c0,.247.106.353.317.353h1.269c.211,0,.317-.106.317-.353Z" transform="translate(-537.893 -314.655)" fill="#fff"/><path d="M678.913,319.7l1.022-4.9h.846l-1.375,6.064h-.987l-.846-4.513-.846,4.513h-.987L674.4,314.8h.881l1.022,4.9.952-4.9h.776Z" transform="translate(-549.624 -314.726)" fill="#fff"/><path d="M703.573,314.7v.776a.688.688,0,0,0-.247-.035h-2.08v1.8h1.622a.6.6,0,0,0,.247-.035v.74c-.071,0-.176-.035-.247-.035h-1.622v2.115h2.221a.6.6,0,0,0,.247-.035v.776H700.4V314.7Z" transform="translate(-566.458 -314.661)" fill="#fff"/><path d="M721.714,320.864H720.8l-.987-2.785h-1.163v2.785H717.8V314.8h2.68a.866.866,0,0,1,.952.987v1.269c0,.74-.423.952-.74.952h-.07Zm-3.032-5.324V317.3h1.587c.212,0,.317-.106.317-.353v-1.058c0-.247-.106-.353-.317-.353Z" transform="translate(-577.723 -314.726)" fill="#fff"/></g></g></svg>